<?xml version="1.0" standalone="no"?>
<!DOCTYPE svg PUBLIC "-//W3C//DTD SVG 20010904//EN"
 "http://www.w3.org/TR/2001/REC-SVG-20010904/DTD/svg10.dtd">
<svg version="1.0" xmlns="http://www.w3.org/2000/svg"
 width="700.000000pt" height="700.000000pt" viewBox="0 0 700.000000 700.000000"
 preserveAspectRatio="xMidYMid meet">
<metadata>
Created by potrace 1.14, written by Peter Selinger 2001-2017
</metadata>
<g transform="translate(0.000000,700.000000) scale(0.100000,-0.100000)"
fill="#000000" stroke="none">
<path d="M3278 6995 c-1 -1 -41 -5 -88 -9 -89 -7 -101 -8 -245 -31 -130 -21
-138 -23 -275 -56 -303 -73 -678 -222 -907 -361 -34 -21 -67 -38 -73 -38 -5 0
-10 -3 -10 -8 0 -7 -30 -25 -62 -38 -10 -3 -18 -10 -18 -15 0 -5 -5 -9 -10 -9
-11 0 -60 -33 -94 -62 -11 -10 -23 -18 -26 -18 -4 0 -20 -11 -36 -25 -16 -14
-32 -25 -36 -25 -4 0 -13 -6 -20 -13 -7 -7 -40 -34 -73 -60 -149 -119 -310
-276 -475 -462 -117 -133 -360 -489 -408 -597 -6 -16 -15 -28 -20 -28 -5 0 -9
-6 -9 -12 0 -7 -25 -65 -55 -128 -117 -245 -222 -553 -263 -777 -3 -16 -8 -39
-11 -53 -3 -14 -8 -36 -10 -50 -2 -14 -6 -34 -9 -45 -2 -11 -7 -43 -10 -71 -3
-28 -8 -61 -10 -75 -12 -59 -20 -231 -20 -434 0 -247 8 -346 41 -570 10 -62
25 -137 48 -231 8 -34 17 -72 20 -85 11 -53 69 -234 109 -341 14 -36 23 -69
20 -72 -4 -3 -2 -6 3 -6 6 0 16 -17 23 -37 19 -52 132 -284 178 -365 67 -118
107 -183 113 -188 4 -3 13 -16 20 -30 14 -27 135 -194 179 -246 14 -18 42 -51
61 -75 65 -81 274 -296 357 -368 160 -139 456 -354 543 -394 8 -4 31 -17 50
-28 144 -88 400 -203 600 -271 100 -34 331 -98 401 -112 137 -25 200 -36 234
-41 22 -2 56 -7 75 -10 192 -27 677 -27 842 0 13 2 46 7 73 10 72 10 86 12
120 19 17 3 44 8 60 11 339 64 746 215 1040 384 39 23 78 44 88 47 9 4 17 10
17 15 0 5 5 9 10 9 13 0 247 159 320 217 227 182 408 360 576 568 48 61 93
109 98 107 6 -2 8 0 4 4 -8 8 22 64 34 64 4 0 8 5 8 10 0 10 37 69 51 80 38
32 299 528 307 583 1 4 8 20 16 35 22 40 84 218 119 342 40 139 49 175 63 263
4 20 11 40 15 43 5 3 7 9 4 14 -3 5 1 47 9 92 8 46 18 110 21 143 4 33 9 71
11 85 9 49 11 526 3 612 -8 84 -18 172 -24 213 -1 11 -6 43 -10 70 -12 84 -64
315 -91 402 -13 46 -25 85 -25 88 0 9 -70 199 -84 232 -8 17 -15 34 -15 38 0
4 -13 34 -28 68 -16 34 -42 91 -57 127 -16 36 -34 72 -40 80 -6 8 -20 33 -30
55 -21 43 -31 60 -121 205 -416 678 -1115 1222 -1889 1470 -166 54 -398 110
-515 125 -19 3 -46 7 -60 10 -13 2 -52 7 -86 11 -33 3 -74 8 -90 10 -32 5
-540 14 -546 9z"/>
</g>
</svg>
